<svg width="68" height="25" viewBox="0 0 68 25" fill="none" xmlns="http://www.w3.org/2000/svg">
<g clip-path="url(#clip0_325_4345)">
<path d="M30.7344 4.78369H33.8375V18.5675H30.7344V12.7197H25.523V18.5675H22.4199V4.78369H25.523V10.0548H30.7344V4.78369Z" fill="#131540"/>
<path d="M39.0388 5.08183C39.0388 5.62563 38.863 6.05331 38.5118 6.36485C38.16 6.67639 37.7458 6.83216 37.2684 6.83216C36.791 6.83216 36.3762 6.67639 36.025 6.36485C35.6733 6.05331 35.498 5.62563 35.498 5.08183C35.498 4.53803 35.6733 4.11091 36.025 3.79881C36.3762 3.48727 36.791 3.3315 37.2684 3.3315C37.7458 3.3315 38.16 3.48727 38.5118 3.79881C38.863 4.11035 39.0388 4.53803 39.0388 5.08183ZM38.7602 18.5675H35.7967V8.10513H38.7602V18.5675Z" fill="#131540"/>
<path d="M44.6857 4.10198C46.7409 4.10198 48.3187 4.46322 49.4197 5.18624C50.5201 5.90926 51.0706 7.09234 51.0706 8.7366C51.0706 10.3808 50.5134 11.5907 49.3996 12.3266C48.2857 13.0625 46.6945 13.4304 44.6259 13.4304H43.6511V25.1557H40.548V4.45987C41.2241 4.32754 41.9404 4.23431 42.6964 4.18126C43.4524 4.12822 44.1151 4.10143 44.6857 4.10143V4.10198ZM44.8844 6.7473C44.6589 6.7473 44.4367 6.754 44.2184 6.7674C43.9995 6.7808 43.8108 6.7942 43.6517 6.80704V10.7851H44.6265C45.7007 10.7851 46.5092 10.6394 47.053 10.3473C47.5968 10.0559 47.8687 9.5121 47.8687 8.7165C47.8687 8.33181 47.7989 8.01357 47.6599 7.76177C47.5208 7.50997 47.3215 7.30786 47.063 7.15488C46.8045 7.00245 46.4891 6.89637 46.1183 6.83663C45.747 6.77689 45.3356 6.7473 44.885 6.7473H44.8844Z" fill="#131540"/>
<path d="M56.1653 4.69436C57.0407 4.69436 57.7693 4.79374 58.3533 4.9925C58.9368 5.19126 59.4041 5.47657 59.7558 5.84785C60.107 6.21913 60.3555 6.67025 60.5018 7.20066C60.6475 7.73106 60.7206 8.32121 60.7206 8.97109V15.1372C60.2963 15.2299 59.7061 15.3393 58.9502 15.4655C58.1942 15.5911 57.2791 15.6542 56.2055 15.6542C55.5294 15.6542 54.9158 15.5944 54.3658 15.475C53.8153 15.3555 53.3413 15.1601 52.9438 14.8882C52.5457 14.6163 52.2409 14.2617 52.0287 13.824C51.8165 13.3863 51.7104 12.8492 51.7104 12.2127C51.7104 11.5762 51.8327 11.086 52.0784 10.6611C52.3235 10.2368 52.6518 9.89902 53.0627 9.64666C53.4736 9.39486 53.9443 9.21228 54.4747 9.0995C55.0051 8.98728 55.555 8.93033 56.1256 8.93033C56.5103 8.93033 56.8515 8.94708 57.1502 8.98002C57.4483 9.01352 57.6901 9.05651 57.876 9.10955V8.83095C57.876 8.32735 57.7236 7.92257 57.4187 7.61772C57.1133 7.31288 56.5835 7.16046 55.8275 7.16046C55.3233 7.16046 54.8259 7.19731 54.3357 7.26989C53.8449 7.34303 53.4206 7.44576 53.0627 7.57808L52.6847 5.19127C52.8567 5.13822 53.0728 5.08183 53.3313 5.02209C53.5898 4.96235 53.8711 4.90987 54.1765 4.86297C54.4814 4.81663 54.803 4.77699 55.1413 4.74349C55.4797 4.71055 55.8208 4.6938 56.1658 4.6938L56.1653 4.69436ZM56.4042 13.3667C56.6957 13.3667 56.9743 13.36 57.2395 13.3466C57.5047 13.3338 57.7169 13.3137 57.876 13.2869V11.0391C57.7565 11.0129 57.5778 10.9861 57.3389 10.9598C57.1005 10.9336 56.8816 10.9202 56.6823 10.9202C56.4037 10.9202 56.1418 10.9369 55.8967 10.9699C55.6511 11.0034 55.4356 11.0665 55.2502 11.1586C55.0643 11.2513 54.9186 11.3774 54.8125 11.5366C54.7064 11.6957 54.6534 11.8945 54.6534 12.1334C54.6534 12.5979 54.8091 12.919 55.1207 13.0982C55.4322 13.2774 55.8599 13.3667 56.4037 13.3667H56.4042Z" fill="#131540"/>
<path d="M67.5824 15.6341C66.7203 15.6207 66.0207 15.528 65.4842 15.3555C64.9471 15.1835 64.5228 14.9412 64.2112 14.6297C63.8997 14.3181 63.687 13.9401 63.5748 13.4957C63.462 13.0518 63.4056 12.551 63.4056 11.9938V0.477363L66.3691 0V11.397C66.3691 11.6622 66.3892 11.9011 66.4289 12.1127C66.4685 12.3249 66.545 12.5041 66.6578 12.6499C66.7706 12.7961 66.933 12.9151 67.1452 13.0077C67.3574 13.1004 67.6427 13.1602 68.0005 13.187L67.5829 15.6335L67.5824 15.6341Z" fill="#131540"/>
<path d="M38.7608 19.7528H22.4205V21.5244H38.7608V19.7528Z" fill="#131540"/>
<path d="M68 16.9796H44.9179V18.7512H68V16.9796Z" fill="#131540"/>
<path d="M13.8564 11.2959C12.862 10.277 12.4181 9.84262 12.3997 9.82475L12.2021 9.63158L11.1653 10.6924L11.3629 10.8856C11.3674 10.89 11.8191 11.3322 12.7945 12.3322C13.4829 13.0379 13.968 13.9178 14.197 14.877C14.8614 17.6591 13.1702 20.492 10.4272 21.1921C9.06041 21.5405 7.6434 21.3317 6.43799 20.6037C5.23425 19.8767 4.39063 18.7238 4.06289 17.3604L3.79155 16.0657L3.80495 16.0623L3.74074 15.7938C3.5967 15.1891 3.70445 14.5688 4.04503 14.0462C4.38504 13.5242 4.90986 13.1752 5.52346 13.063C6.63507 12.8592 7.75674 13.5487 8.07721 14.6324C8.40551 15.7424 7.84774 16.9104 6.77968 17.3487C6.44022 17.4883 6.25597 17.8489 6.3414 18.2063C6.39165 18.4173 6.53178 18.5954 6.72496 18.6942C6.91814 18.793 7.14426 18.8025 7.34526 18.7199C9.09224 18.0013 10.0252 16.0858 9.51489 14.2634C9.26699 13.3785 8.67406 12.6136 7.84495 12.1105C7.01585 11.6069 6.06391 11.4333 5.16446 11.6214C4.3186 11.7984 3.39347 12.3646 2.79774 13.058C2.72348 12.857 2.64476 12.6504 2.56213 12.4343L2.5599 12.4282C2.14618 11.3451 1.67775 10.1168 1.61019 9.07214C1.59177 8.7913 1.43488 8.54564 1.19983 8.43175C1.05076 8.35972 0.886612 8.33906 0.724141 8.37368C0.347275 8.4524 0.015633 8.83318 0 9.20893V9.21674V9.22009C0.013958 10.224 0.560553 11.7007 1.19369 13.4103C1.67608 14.7134 2.22267 16.1902 2.61461 17.6798L2.6174 17.6932C3.03782 19.453 4.12208 20.9376 5.67141 21.8733C6.71882 22.5059 7.91251 22.8403 9.12406 22.8403C9.64777 22.8403 10.1748 22.7778 10.6896 22.6549C10.7242 22.6466 10.7594 22.6382 10.794 22.6293C12.4941 22.1954 13.9362 21.1067 14.8547 19.5646C15.7692 18.0293 16.0478 16.2421 15.6397 14.5325C15.3482 13.3131 14.7318 12.1937 13.8558 11.2965L13.8564 11.2959Z" fill="#131540"/>
<path d="M4.19689 10.8024L4.31135 11.0346L5.67309 10.4735L5.55082 10.2117C4.68877 8.35973 4.12487 6.63787 3.82672 4.94728L3.81723 4.90875C3.75526 4.7206 3.62405 4.56762 3.44707 4.47829C3.27008 4.38896 3.06908 4.37388 2.88093 4.43585C2.50016 4.56092 2.28688 4.97296 2.40301 5.35541C2.83794 7.45246 3.42473 9.23406 4.19689 10.8029V10.8024Z" fill="#131540"/>
<path d="M7.17329 9.95485L7.28551 10.21L8.69025 9.57742L8.57858 9.32618C7.60599 7.14091 7.05381 5.10305 6.84109 2.91276L6.83328 2.86865C6.78247 2.67715 6.66075 2.51691 6.48935 2.41697C6.3185 2.31759 6.11863 2.29023 5.92656 2.34104C5.54356 2.44209 5.30515 2.83571 5.39225 3.22151C5.5765 5.42799 6.17557 7.69365 7.17329 9.9554V9.95485Z" fill="#131540"/>
<path d="M10.2697 9.39262L10.4222 9.68294L11.5539 8.81811L11.4629 8.61767C10.5813 6.67304 10.4021 5.90368 10.2653 3.47275C10.2547 3.28125 10.167 3.10482 10.0196 2.97697C9.86718 2.84464 9.66451 2.77876 9.46352 2.79607C9.26475 2.81282 9.08442 2.90718 8.95656 3.06071C8.82871 3.21481 8.76841 3.40966 8.78851 3.60898C9.03361 6.10747 9.14527 7.24811 10.2703 9.39262H10.2697Z" fill="#F2634C"/>
<path d="M17.5597 8.19725C17.3353 7.63223 16.6301 7.63893 16.2276 8.00519C15.1221 8.7338 14.3857 10.6807 14.3857 10.6807L15.3415 12.0061C15.3415 12.0061 15.7575 11.6644 16.0668 10.7549C16.4202 9.31891 17.9829 9.16929 17.5597 8.19725Z" fill="#131540"/>
</g>
<defs>
<clipPath id="clip0_325_4345">
<rect width="68" height="25.1557" fill="white"/>
</clipPath>
</defs>
</svg>
