<svg width="104" height="31" viewBox="0 0 104 31" fill="none" xmlns="http://www.w3.org/2000/svg">
<path d="M35.1819 7.91223H38.7341V23.4489H35.1819V16.8574H29.2164V23.4489H25.6642V7.91223H29.2164V13.8536H35.1819V7.91223Z" fill="#131540"/>
<path d="M44.6882 8.24843C44.6882 8.86138 44.4869 9.34344 44.0849 9.6946C43.6823 10.0458 43.2081 10.2213 42.6616 10.2213C42.1152 10.2213 41.6403 10.0458 41.2383 9.6946C40.8357 9.34344 40.635 8.86138 40.635 8.24843C40.635 7.63547 40.8357 7.15404 41.2383 6.80225C41.6403 6.45109 42.1152 6.27551 42.6616 6.27551C43.2081 6.27551 43.6823 6.45109 44.0849 6.80225C44.4869 7.15341 44.6882 7.63547 44.6882 8.24843ZM44.3693 23.449H40.9769V11.6562H44.3693V23.449Z" fill="#131540"/>
<path d="M44.3698 24.785H25.6648V26.7819H44.3698V24.785Z" fill="#131540"/>
<path d="M103.043 21.6592H55.5092V23.656H103.043V21.6592Z" fill="#131540"/>
<path d="M15.8616 15.2529C14.7233 14.1044 14.2152 13.6148 14.1941 13.5946L13.9679 13.3769L12.781 14.5726L13.0073 14.7903C13.0124 14.7954 13.5294 15.2938 14.646 16.4209C15.434 17.2163 15.9894 18.2082 16.2514 19.2893C17.012 22.4252 15.0761 25.6184 11.9361 26.4075C10.3716 26.8002 8.7495 26.5649 7.36965 25.7442C5.99171 24.9249 5.02601 23.6253 4.65085 22.0885L4.34024 20.6291L4.35558 20.6254L4.28208 20.3227C4.11719 19.6411 4.24053 18.9419 4.6304 18.3529C5.01962 17.7645 5.62039 17.3712 6.32277 17.2447C7.59525 17.015 8.87924 17.7922 9.24609 19.0137C9.62189 20.2648 8.98341 21.5813 7.76079 22.0753C7.3722 22.2326 7.16129 22.6392 7.25908 23.042C7.3166 23.2798 7.47702 23.4806 7.69815 23.592C7.91929 23.7034 8.17813 23.7141 8.40821 23.6209C10.408 22.811 11.476 20.6518 10.8918 18.5977C10.608 17.6002 9.92931 16.7381 8.98022 16.171C8.03113 15.6034 6.94144 15.4077 5.91182 15.6198C4.94356 15.8193 3.88455 16.4574 3.20261 17.239C3.11761 17.0124 3.02749 16.7796 2.9329 16.5361L2.93035 16.5291C2.45676 15.3083 1.92054 13.9237 1.84321 12.7463C1.82212 12.4297 1.64253 12.1528 1.37346 12.0245C1.20282 11.9433 1.01492 11.92 0.828933 11.959C0.39753 12.0477 0.0178952 12.4769 0 12.9005V12.9093V12.9131C0.0159779 14.0446 0.641672 15.7091 1.36643 17.6361C1.91863 19.1049 2.54432 20.7695 2.99298 22.4485L2.99618 22.4636C3.47743 24.4472 4.71859 26.1206 6.49214 27.1753C7.69112 27.8883 9.05755 28.2653 10.4444 28.2653C11.0439 28.2653 11.6473 28.1948 12.2365 28.0564C12.2761 28.0469 12.3164 28.0375 12.356 28.0274C14.3021 27.5384 15.953 26.3113 17.0043 24.5731C18.0512 22.8425 18.3701 20.828 17.9029 18.901C17.5693 17.5266 16.8637 16.2648 15.8609 15.2535L15.8616 15.2529Z" fill="#131540"/>
<path d="M4.80448 14.6963L4.9355 14.9581L6.49431 14.3256L6.35434 14.0304C5.36755 11.943 4.72204 10.0022 4.38075 8.09659L4.36989 8.05316C4.29894 7.84108 4.14875 7.66865 3.94615 7.56796C3.74355 7.46727 3.51347 7.45028 3.29809 7.52013C2.86221 7.6611 2.61807 8.12554 2.751 8.55662C3.24888 10.9203 3.92059 12.9285 4.80448 14.6969V14.6963Z" fill="#131540"/>
<path d="M8.21163 13.7412L8.34009 14.0288L9.94811 13.3157L9.82028 13.0325C8.70694 10.5694 8.07486 8.27238 7.83135 5.80356L7.82241 5.75385C7.76425 5.53799 7.62492 5.35738 7.42871 5.24473C7.23314 5.13271 7.00434 5.10187 6.78448 5.15914C6.34605 5.27305 6.07315 5.71672 6.17285 6.15158C6.38376 8.63865 7.06953 11.1924 8.21163 13.7418V13.7412Z" fill="#131540"/>
<path d="M11.7558 13.1075L11.9303 13.4348L13.2258 12.46L13.1216 12.234C12.1125 10.0421 11.9073 9.17492 11.7507 6.43487C11.7386 6.21901 11.6383 6.02015 11.4695 5.87603C11.295 5.72688 11.063 5.65262 10.833 5.67213C10.6054 5.69101 10.399 5.79737 10.2526 5.97043C10.1063 6.14412 10.0373 6.36375 10.0603 6.58842C10.3408 9.40462 10.4687 10.6903 11.7565 13.1075H11.7558Z" fill="#F2634C"/>
<path d="M20.1008 11.76C19.8439 11.1231 19.0367 11.1306 18.5759 11.5435C17.3105 12.3647 16.4675 14.5592 16.4675 14.5592L17.5616 16.0532C17.5616 16.0532 18.0378 15.668 18.3918 14.6429C18.7964 13.0243 20.5853 12.8556 20.1008 11.76Z" fill="#131540"/>
<path d="M56.3922 1.92303V4.93996H51.5917V26.4643H48.0084V4.93996H43.2079V1.92303H56.3922Z" fill="#131540"/>
<path d="M61.3551 15.2837C61.6919 15.2837 62.0135 15.2762 62.3198 15.261C62.626 15.2459 62.871 15.2232 63.0548 15.193V12.6297C62.917 12.5995 62.7102 12.5692 62.4346 12.539C62.159 12.5087 61.9063 12.4936 61.6766 12.4936C61.3551 12.4936 61.0488 12.5163 60.7579 12.5617C60.4822 12.5919 60.2372 12.66 60.0228 12.7658C59.8085 12.8717 59.64 13.0153 59.5175 13.1968C59.395 13.3783 59.3338 13.6051 59.3338 13.8773C59.3338 14.4066 59.5099 14.7771 59.8621 14.9888C60.2296 15.1854 60.7272 15.2837 61.3551 15.2837ZM61.0794 5.39363C62.0901 5.39363 62.9323 5.50705 63.6061 5.73389C64.2798 5.96072 64.8158 6.28585 65.2139 6.70928C65.6274 7.13271 65.9183 7.64688 66.0867 8.25177C66.2552 8.85667 66.3394 9.52962 66.3394 10.2706V17.3026C65.8494 17.4084 65.168 17.5294 64.2951 17.6655C63.4223 17.8167 62.3657 17.8923 61.1254 17.8923C60.3444 17.8923 59.6324 17.8243 58.9892 17.6882C58.3614 17.5521 57.8178 17.3328 57.3584 17.0304C56.899 16.7128 56.5468 16.3045 56.3018 15.8054C56.0568 15.3064 55.9343 14.6939 55.9343 13.9681C55.9343 13.2724 56.0721 12.6827 56.3477 12.1987C56.6387 11.7148 57.0215 11.3292 57.4962 11.0419C57.9709 10.7545 58.5145 10.5504 59.127 10.4294C59.7395 10.2933 60.375 10.2253 61.0335 10.2253C61.4776 10.2253 61.868 10.2479 62.2049 10.2933C62.5571 10.3236 62.8404 10.3689 63.0548 10.4294V10.1118C63.0548 9.53718 62.8787 9.07595 62.5265 8.72813C62.1743 8.38031 61.5618 8.20641 60.6889 8.20641C60.1071 8.20641 59.5328 8.25177 58.9662 8.34251C58.3997 8.41812 57.9097 8.53154 57.4962 8.68276L57.0598 5.96072C57.2589 5.90023 57.5039 5.83974 57.7948 5.77925C58.1011 5.70364 58.4303 5.64315 58.7825 5.59778C59.1347 5.53729 59.5022 5.49193 59.885 5.46168C60.2832 5.41631 60.6813 5.39363 61.0794 5.39363Z" fill="#131540"/>
<path d="M77.1748 11.5863C77.1748 9.40864 76.3632 8.31983 74.7401 8.31983C74.3879 8.31983 74.0357 8.36519 73.6835 8.45593C73.3466 8.54666 73.071 8.66008 72.8566 8.79618V14.9435C73.025 14.9737 73.2394 15.0039 73.4997 15.0342C73.76 15.0493 74.0433 15.0569 74.3496 15.0569C75.2837 15.0569 75.9881 14.7393 76.4628 14.1042C76.9375 13.469 77.1748 12.6297 77.1748 11.5863ZM80.6662 11.677C80.6662 12.6297 80.5207 13.4917 80.2297 14.2629C79.9541 15.0342 79.5483 15.692 79.0124 16.2364C78.4764 16.7808 77.818 17.2043 77.037 17.5067C76.2561 17.794 75.3679 17.9377 74.3726 17.9377C73.9591 17.9377 73.5227 17.915 73.0633 17.8697C72.6192 17.8394 72.1752 17.794 71.7311 17.7335C71.3023 17.6731 70.8889 17.605 70.4907 17.5294C70.0926 17.4387 69.7404 17.3479 69.4342 17.2572V0.584691L72.8566 0.0402832V5.98341C73.2394 5.81706 73.6375 5.68852 74.051 5.59778C74.4644 5.50705 74.9085 5.46168 75.3832 5.46168C76.2407 5.46168 76.9987 5.61291 77.6572 5.91536C78.3156 6.20268 78.8669 6.61855 79.311 7.16296C79.755 7.70737 80.0919 8.36519 80.3216 9.13644C80.5513 9.89256 80.6662 10.7394 80.6662 11.677Z" fill="#131540"/>
<path d="M88.1201 17.8697C87.1247 17.8545 86.3131 17.7487 85.6853 17.5521C85.0728 17.3555 84.5828 17.0833 84.2153 16.7355C83.8631 16.3725 83.6181 15.9415 83.4803 15.4425C83.3578 14.9283 83.2965 14.3537 83.2965 13.7185V0.584691L86.7189 0.0402832V13.038C86.7189 13.3405 86.7419 13.6127 86.7878 13.8546C86.8338 14.0966 86.918 14.3008 87.0405 14.4671C87.1783 14.6334 87.3697 14.7696 87.6147 14.8754C87.8597 14.9813 88.189 15.0493 88.6024 15.0796L88.1201 17.8697Z" fill="#131540"/>
<path d="M89.9899 11.7677C89.9899 10.7092 90.1507 9.7867 90.4723 9.00033C90.8092 8.19884 91.2456 7.53346 91.7815 7.00417C92.3175 6.47489 92.93 6.07414 93.6191 5.80194C94.3235 5.52973 95.0432 5.39363 95.7782 5.39363C97.4932 5.39363 98.8484 5.91536 99.8438 6.9588C100.839 7.98713 101.337 9.50694 101.337 11.5182C101.337 11.7148 101.329 11.9341 101.314 12.1761C101.298 12.4029 101.283 12.607 101.268 12.7885H93.5042C93.5808 13.4841 93.91 14.0361 94.4919 14.4444C95.0738 14.8527 95.8547 15.0569 96.8348 15.0569C97.4626 15.0569 98.0751 15.0039 98.6723 14.8981C99.2848 14.7771 99.7825 14.6334 100.165 14.4671L100.625 17.2118C100.441 17.3026 100.196 17.3933 99.8897 17.484C99.5834 17.5748 99.2389 17.6504 98.8561 17.7109C98.4886 17.7865 98.0904 17.847 97.6617 17.8923C97.2329 17.9377 96.8041 17.9604 96.3754 17.9604C95.2882 17.9604 94.3388 17.8016 93.5272 17.484C92.7309 17.1665 92.0648 16.7355 91.5289 16.1911C91.0082 15.6315 90.6177 14.9737 90.3574 14.2176C90.1124 13.4615 89.9899 12.6448 89.9899 11.7677ZM98.0292 10.4748C98.0139 10.1874 97.9603 9.90768 97.8684 9.63548C97.7918 9.36327 97.6617 9.12132 97.4779 8.9096C97.3095 8.69789 97.0874 8.52398 96.8118 8.38788C96.5515 8.25177 96.2223 8.18372 95.8241 8.18372C95.4413 8.18372 95.1121 8.25177 94.8364 8.38788C94.5608 8.50886 94.3311 8.6752 94.1474 8.88692C93.9636 9.09863 93.8181 9.34815 93.7109 9.63548C93.6191 9.90768 93.5502 10.1874 93.5042 10.4748H98.0292Z" fill="#131540"/>
</svg>
